<?xml version="1.0" standalone="no"?>
<!DOCTYPE svg PUBLIC "-//W3C//DTD SVG 20010904//EN"
 "http://www.w3.org/TR/2001/REC-SVG-20010904/DTD/svg10.dtd">
<svg version="1.0" xmlns="http://www.w3.org/2000/svg"
 width="200.000000pt" height="200.000000pt" viewBox="0 0 200.000000 200.000000"
 preserveAspectRatio="xMidYMid meet">
<metadata>
Created by potrace 1.16, written by Peter Selinger 2001-2019
</metadata>
<g transform="translate(0.000000,200.000000) scale(0.100000,-0.100000)"
fill="#000000" stroke="none">
<path d="M1785 1109 c-40 -12 -59 -28 -78 -66 -21 -40 -21 -66 -2 -107 31 -65
133 -89 190 -44 51 40 67 122 32 169 -31 41 -94 62 -142 48z m68 -41 c33 -17
46 -39 47 -76 0 -45 -13 -67 -50 -82 -24 -10 -36 -10 -60 0 -37 15 -50 37 -50
82 0 65 59 105 113 76z"/>
<path d="M50 990 l0 -120 65 0 c106 0 155 37 155 118 0 83 -49 122 -155 122
l-65 0 0 -120z m155 55 c54 -53 15 -135 -64 -135 -46 0 -48 7 -43 103 l4 57
39 0 c29 0 47 -7 64 -25z"/>
<path d="M540 990 c0 -113 1 -120 20 -120 17 0 19 8 22 82 l3 83 64 -83 c39
-51 71 -82 82 -82 18 0 19 9 19 120 0 113 -1 120 -20 120 -17 0 -19 -8 -22
-82 l-3 -83 -64 83 c-39 51 -71 82 -82 82 -18 0 -19 -9 -19 -120z"/>
<path d="M947 1103 c-12 -19 -97 -216 -97 -224 0 -5 8 -9 18 -9 14 0 28 24 57
94 22 52 42 93 46 91 3 -3 23 -45 44 -95 29 -69 42 -90 57 -90 24 0 22 5 -37
137 -32 70 -50 99 -64 101 -10 2 -21 0 -24 -5z"/>
<path d="M1190 990 c0 -113 1 -120 20 -120 18 0 20 7 20 88 l0 87 39 -59 39
-58 39 57 38 58 3 -86 c3 -79 5 -87 22 -87 19 0 20 7 20 120 l0 120 -24 0
c-19 0 -32 -12 -58 -55 -18 -30 -35 -55 -38 -55 -3 0 -21 25 -40 55 -25 40
-41 55 -57 55 -23 0 -23 -2 -23 -120z"/>
</g>
</svg>
